<svg id="visual" viewBox="0 0 1920 1080" width="1920" height="1080" xmlns="http://www.w3.org/2000/svg" xmlns:xlink="http://www.w3.org/1999/xlink" version="1.1"><g stroke-width="1" stroke-linejoin="bevel"><path d="M976 519L1002 403L946 495Z" fill="#5b76bc" stroke="#5b76bc"></path><path d="M946 495L987 592L976 519Z" fill="#262b3c" stroke="#262b3c"></path><path d="M1206 483L1131 344L1002 403Z" fill="#5b76bc" stroke="#5b76bc"></path><path d="M1002 403L894 367L946 495Z" fill="#5b76bc" stroke="#5b76bc"></path><path d="M1158 546L1002 403L976 519Z" fill="#536ba8" stroke="#536ba8"></path><path d="M1002 403L1000 283L894 367Z" fill="#262b3c" stroke="#262b3c"></path><path d="M1131 344L1000 283L1002 403Z" fill="#353f5e" stroke="#353f5e"></path><path d="M987 592L1158 546L976 519Z" fill="#0c0c0c" stroke="#0c0c0c"></path><path d="M1158 546L1206 483L1002 403Z" fill="#4c5f95" stroke="#4c5f95"></path><path d="M813 672L903 652L724 607Z" fill="#2d354d" stroke="#2d354d"></path><path d="M946 495L903 652L987 592Z" fill="#1e212c" stroke="#1e212c"></path><path d="M987 592L1126 731L1158 546Z" fill="#353f5e" stroke="#353f5e"></path><path d="M1000 283L854 273L894 367Z" fill="#1e212c" stroke="#1e212c"></path><path d="M894 367L753 417L946 495Z" fill="#353f5e" stroke="#353f5e"></path><path d="M804 274L753 417L894 367Z" fill="#445482" stroke="#445482"></path><path d="M1248 357L1186 301L1131 344Z" fill="#3c4a70" stroke="#3c4a70"></path><path d="M1131 344L1186 301L1000 283Z" fill="#5b76bc" stroke="#5b76bc"></path><path d="M854 273L804 274L894 367Z" fill="#5b76bc" stroke="#5b76bc"></path><path d="M1206 483L1248 357L1131 344Z" fill="#353f5e" stroke="#353f5e"></path><path d="M724 607L903 652L946 495Z" fill="#16171d" stroke="#16171d"></path><path d="M700 435L715 435L753 417Z" fill="#1e212c" stroke="#1e212c"></path><path d="M753 417L724 607L946 495Z" fill="#445482" stroke="#445482"></path><path d="M1302 593L1277 529L1158 546Z" fill="#1e212c" stroke="#1e212c"></path><path d="M1158 546L1277 529L1206 483Z" fill="#1e212c" stroke="#1e212c"></path><path d="M1206 483L1277 529L1248 357Z" fill="#0c0c0c" stroke="#0c0c0c"></path><path d="M583 350L700 435L753 417Z" fill="#1e212c" stroke="#1e212c"></path><path d="M715 435L724 607L753 417Z" fill="#16171d" stroke="#16171d"></path><path d="M1023 777L987 592L903 652Z" fill="#353f5e" stroke="#353f5e"></path><path d="M1023 777L1126 731L987 592Z" fill="#3c4a70" stroke="#3c4a70"></path><path d="M646 568L724 607L715 435Z" fill="#262b3c" stroke="#262b3c"></path><path d="M866 757L1023 777L903 652Z" fill="#5b76bc" stroke="#5b76bc"></path><path d="M756 829L866 757L813 672Z" fill="#1e212c" stroke="#1e212c"></path><path d="M813 672L866 757L903 652Z" fill="#536ba8" stroke="#536ba8"></path><path d="M1150 74L977 137L1000 283Z" fill="#3c4a70" stroke="#3c4a70"></path><path d="M1000 283L977 137L854 273Z" fill="#0c0c0c" stroke="#0c0c0c"></path><path d="M854 273L783 94L804 274Z" fill="#1e212c" stroke="#1e212c"></path><path d="M1126 731L1302 593L1158 546Z" fill="#536ba8" stroke="#536ba8"></path><path d="M1443 393L1304 217L1248 357Z" fill="#262b3c" stroke="#262b3c"></path><path d="M756 829L896 805L866 757Z" fill="#4c5f95" stroke="#4c5f95"></path><path d="M866 757L896 805L1023 777Z" fill="#445482" stroke="#445482"></path><path d="M700 435L646 568L715 435Z" fill="#4c5f95" stroke="#4c5f95"></path><path d="M724 607L626 671L813 672Z" fill="#5b76bc" stroke="#5b76bc"></path><path d="M1036 839L1188 783L1126 731Z" fill="#445482" stroke="#445482"></path><path d="M1126 731L1284 758L1302 593Z" fill="#1e212c" stroke="#1e212c"></path><path d="M1036 839L1126 731L1023 777Z" fill="#2d354d" stroke="#2d354d"></path><path d="M896 805L1036 839L1023 777Z" fill="#2d354d" stroke="#2d354d"></path><path d="M1248 357L1304 217L1186 301Z" fill="#536ba8" stroke="#536ba8"></path><path d="M1186 301L1150 74L1000 283Z" fill="#16171d" stroke="#16171d"></path><path d="M1443 393L1248 357L1277 529Z" fill="#445482" stroke="#445482"></path><path d="M1020 0L952 68L977 137Z" fill="#16171d" stroke="#16171d"></path><path d="M977 137L783 94L854 273Z" fill="#4c5f95" stroke="#4c5f95"></path><path d="M1304 217L1261 152L1186 301Z" fill="#1e212c" stroke="#1e212c"></path><path d="M1276 863L1284 758L1188 783Z" fill="#5b76bc" stroke="#5b76bc"></path><path d="M1188 783L1284 758L1126 731Z" fill="#5b76bc" stroke="#5b76bc"></path><path d="M1261 152L1150 74L1186 301Z" fill="#262b3c" stroke="#262b3c"></path><path d="M1427 756L1401 583L1302 593Z" fill="#1e212c" stroke="#1e212c"></path><path d="M1302 593L1401 583L1277 529Z" fill="#353f5e" stroke="#353f5e"></path><path d="M646 568L626 671L724 607Z" fill="#4c5f95" stroke="#4c5f95"></path><path d="M952 68L783 94L977 137Z" fill="#536ba8" stroke="#536ba8"></path><path d="M804 274L583 350L753 417Z" fill="#262b3c" stroke="#262b3c"></path><path d="M700 435L511 489L646 568Z" fill="#353f5e" stroke="#353f5e"></path><path d="M602 219L583 350L804 274Z" fill="#3c4a70" stroke="#3c4a70"></path><path d="M646 568L544 638L626 671Z" fill="#4c5f95" stroke="#4c5f95"></path><path d="M626 671L756 829L813 672Z" fill="#536ba8" stroke="#536ba8"></path><path d="M896 805L933 992L1036 839Z" fill="#4c5f95" stroke="#4c5f95"></path><path d="M1451 488L1443 393L1277 529Z" fill="#262b3c" stroke="#262b3c"></path><path d="M1304 217L1417 199L1261 152Z" fill="#3c4a70" stroke="#3c4a70"></path><path d="M1401 583L1451 488L1277 529Z" fill="#3c4a70" stroke="#3c4a70"></path><path d="M1150 74L1020 0L977 137Z" fill="#0c0c0c" stroke="#0c0c0c"></path><path d="M952 68L873 0L783 94Z" fill="#536ba8" stroke="#536ba8"></path><path d="M783 94L602 219L804 274Z" fill="#536ba8" stroke="#536ba8"></path><path d="M1036 839L1162 905L1188 783Z" fill="#1e212c" stroke="#1e212c"></path><path d="M962 996L1162 905L1036 839Z" fill="#4c5f95" stroke="#4c5f95"></path><path d="M602 219L538 342L583 350Z" fill="#2d354d" stroke="#2d354d"></path><path d="M583 350L511 489L700 435Z" fill="#2d354d" stroke="#2d354d"></path><path d="M1020 0L873 0L952 68Z" fill="#262b3c" stroke="#262b3c"></path><path d="M783 94L634 104L602 219Z" fill="#5b76bc" stroke="#5b76bc"></path><path d="M511 489L544 638L646 568Z" fill="#353f5e" stroke="#353f5e"></path><path d="M626 671L622 810L756 829Z" fill="#262b3c" stroke="#262b3c"></path><path d="M538 342L511 489L583 350Z" fill="#536ba8" stroke="#536ba8"></path><path d="M1162 905L1276 863L1188 783Z" fill="#5b76bc" stroke="#5b76bc"></path><path d="M1284 758L1427 756L1302 593Z" fill="#445482" stroke="#445482"></path><path d="M1401 583L1557 523L1451 488Z" fill="#536ba8" stroke="#536ba8"></path><path d="M1296 0L1175 0L1150 74Z" fill="#353f5e" stroke="#353f5e"></path><path d="M1150 74L1175 0L1020 0Z" fill="#445482" stroke="#445482"></path><path d="M1296 0L1150 74L1261 152Z" fill="#353f5e" stroke="#353f5e"></path><path d="M1443 393L1417 199L1304 217Z" fill="#0c0c0c" stroke="#0c0c0c"></path><path d="M748 0L634 104L783 94Z" fill="#5b76bc" stroke="#5b76bc"></path><path d="M602 219L543 187L538 342Z" fill="#4c5f95" stroke="#4c5f95"></path><path d="M571 775L622 810L626 671Z" fill="#16171d" stroke="#16171d"></path><path d="M792 980L933 992L896 805Z" fill="#536ba8" stroke="#536ba8"></path><path d="M1416 874L1427 756L1284 758Z" fill="#16171d" stroke="#16171d"></path><path d="M873 0L748 0L783 94Z" fill="#445482" stroke="#445482"></path><path d="M544 638L571 775L626 671Z" fill="#5b76bc" stroke="#5b76bc"></path><path d="M555 785L571 775L544 638Z" fill="#1e212c" stroke="#1e212c"></path><path d="M430 132L543 187L469 59Z" fill="#262b3c" stroke="#262b3c"></path><path d="M634 104L543 187L602 219Z" fill="#0c0c0c" stroke="#0c0c0c"></path><path d="M538 342L420 473L511 489Z" fill="#0c0c0c" stroke="#0c0c0c"></path><path d="M792 980L896 805L756 829Z" fill="#0c0c0c" stroke="#0c0c0c"></path><path d="M1298 1008L1416 874L1276 863Z" fill="#536ba8" stroke="#536ba8"></path><path d="M933 992L962 996L1036 839Z" fill="#16171d" stroke="#16171d"></path><path d="M571 775L555 785L622 810Z" fill="#262b3c" stroke="#262b3c"></path><path d="M695 991L792 980L756 829Z" fill="#16171d" stroke="#16171d"></path><path d="M352 661L555 785L544 638Z" fill="#1e212c" stroke="#1e212c"></path><path d="M1443 393L1529 325L1417 199Z" fill="#0c0c0c" stroke="#0c0c0c"></path><path d="M1557 523L1529 325L1443 393Z" fill="#353f5e" stroke="#353f5e"></path><path d="M1557 523L1443 393L1451 488Z" fill="#16171d" stroke="#16171d"></path><path d="M1386 0L1296 0L1261 152Z" fill="#445482" stroke="#445482"></path><path d="M1445 94L1261 152L1417 199Z" fill="#5b76bc" stroke="#5b76bc"></path><path d="M695 991L756 829L622 810Z" fill="#3c4a70" stroke="#3c4a70"></path><path d="M906 1080L1020 1080L962 996Z" fill="#4c5f95" stroke="#4c5f95"></path><path d="M1558 658L1557 523L1401 583Z" fill="#1e212c" stroke="#1e212c"></path><path d="M375 357L420 473L538 342Z" fill="#3c4a70" stroke="#3c4a70"></path><path d="M511 489L420 473L544 638Z" fill="#445482" stroke="#445482"></path><path d="M1531 884L1523 707L1427 756Z" fill="#353f5e" stroke="#353f5e"></path><path d="M1427 756L1523 707L1401 583Z" fill="#3c4a70" stroke="#3c4a70"></path><path d="M1493 99L1445 94L1417 199Z" fill="#16171d" stroke="#16171d"></path><path d="M1298 1008L1276 863L1162 905Z" fill="#353f5e" stroke="#353f5e"></path><path d="M1276 863L1416 874L1284 758Z" fill="#2d354d" stroke="#2d354d"></path><path d="M748 0L625 0L634 104Z" fill="#16171d" stroke="#16171d"></path><path d="M1621 780L1558 658L1523 707Z" fill="#2d354d" stroke="#2d354d"></path><path d="M1523 707L1558 658L1401 583Z" fill="#262b3c" stroke="#262b3c"></path><path d="M1445 94L1386 0L1261 152Z" fill="#445482" stroke="#445482"></path><path d="M508 956L695 991L622 810Z" fill="#0c0c0c" stroke="#0c0c0c"></path><path d="M906 1080L962 996L933 992Z" fill="#2d354d" stroke="#2d354d"></path><path d="M1586 193L1493 99L1417 199Z" fill="#16171d" stroke="#16171d"></path><path d="M1445 94L1570 0L1386 0Z" fill="#536ba8" stroke="#536ba8"></path><path d="M906 1080L933 992L818 1080Z" fill="#1e212c" stroke="#1e212c"></path><path d="M962 996L1020 1080L1162 905Z" fill="#3c4a70" stroke="#3c4a70"></path><path d="M1183 1080L1298 1008L1162 905Z" fill="#262b3c" stroke="#262b3c"></path><path d="M818 1080L933 992L792 980Z" fill="#1e212c" stroke="#1e212c"></path><path d="M326 227L375 357L543 187Z" fill="#16171d" stroke="#16171d"></path><path d="M543 187L375 357L538 342Z" fill="#445482" stroke="#445482"></path><path d="M700 1080L818 1080L792 980Z" fill="#16171d" stroke="#16171d"></path><path d="M1020 1080L1183 1080L1162 905Z" fill="#2d354d" stroke="#2d354d"></path><path d="M1680 212L1586 193L1529 325Z" fill="#445482" stroke="#445482"></path><path d="M1529 325L1586 193L1417 199Z" fill="#3c4a70" stroke="#3c4a70"></path><path d="M1660 381L1529 325L1557 523Z" fill="#262b3c" stroke="#262b3c"></path><path d="M469 59L543 187L634 104Z" fill="#3c4a70" stroke="#3c4a70"></path><path d="M1183 1080L1235 1080L1298 1008Z" fill="#536ba8" stroke="#536ba8"></path><path d="M1547 944L1531 884L1416 874Z" fill="#0c0c0c" stroke="#0c0c0c"></path><path d="M625 0L469 59L634 104Z" fill="#353f5e" stroke="#353f5e"></path><path d="M1721 480L1660 381L1557 523Z" fill="#3c4a70" stroke="#3c4a70"></path><path d="M282 657L352 661L206 537Z" fill="#4c5f95" stroke="#4c5f95"></path><path d="M420 473L352 661L544 638Z" fill="#4c5f95" stroke="#4c5f95"></path><path d="M508 956L700 1080L695 991Z" fill="#262b3c" stroke="#262b3c"></path><path d="M1416 874L1531 884L1427 756Z" fill="#262b3c" stroke="#262b3c"></path><path d="M1558 658L1706 565L1557 523Z" fill="#5b76bc" stroke="#5b76bc"></path><path d="M1444 1012L1416 874L1298 1008Z" fill="#1e212c" stroke="#1e212c"></path><path d="M508 956L622 810L555 785Z" fill="#262b3c" stroke="#262b3c"></path><path d="M695 991L700 1080L792 980Z" fill="#262b3c" stroke="#262b3c"></path><path d="M386 829L508 956L555 785Z" fill="#0c0c0c" stroke="#0c0c0c"></path><path d="M282 657L335 689L352 661Z" fill="#5b76bc" stroke="#5b76bc"></path><path d="M352 661L386 829L555 785Z" fill="#3c4a70" stroke="#3c4a70"></path><path d="M1531 884L1621 780L1523 707Z" fill="#16171d" stroke="#16171d"></path><path d="M1431 1080L1444 1012L1298 1008Z" fill="#353f5e" stroke="#353f5e"></path><path d="M1531 884L1635 845L1621 780Z" fill="#5b76bc" stroke="#5b76bc"></path><path d="M430 132L326 227L543 187Z" fill="#2d354d" stroke="#2d354d"></path><path d="M206 537L352 661L420 473Z" fill="#536ba8" stroke="#536ba8"></path><path d="M310 187L326 227L430 132Z" fill="#445482" stroke="#445482"></path><path d="M335 689L386 829L352 661Z" fill="#5b76bc" stroke="#5b76bc"></path><path d="M625 0L453 0L469 59Z" fill="#3c4a70" stroke="#3c4a70"></path><path d="M469 59L394 0L430 132Z" fill="#536ba8" stroke="#536ba8"></path><path d="M1621 780L1706 565L1558 658Z" fill="#445482" stroke="#445482"></path><path d="M1706 565L1721 480L1557 523Z" fill="#4c5f95" stroke="#4c5f95"></path><path d="M1660 381L1680 212L1529 325Z" fill="#4c5f95" stroke="#4c5f95"></path><path d="M1768 287L1680 212L1660 381Z" fill="#262b3c" stroke="#262b3c"></path><path d="M1586 193L1570 0L1493 99Z" fill="#5b76bc" stroke="#5b76bc"></path><path d="M1493 99L1570 0L1445 94Z" fill="#0c0c0c" stroke="#0c0c0c"></path><path d="M1444 1012L1547 944L1416 874Z" fill="#1e212c" stroke="#1e212c"></path><path d="M1689 65L1570 0L1586 193Z" fill="#445482" stroke="#445482"></path><path d="M310 0L310 187L430 132Z" fill="#536ba8" stroke="#536ba8"></path><path d="M206 537L420 473L375 357Z" fill="#536ba8" stroke="#536ba8"></path><path d="M206 537L375 357L198 361Z" fill="#2d354d" stroke="#2d354d"></path><path d="M238 759L289 862L386 829Z" fill="#2d354d" stroke="#2d354d"></path><path d="M1547 944L1635 845L1531 884Z" fill="#353f5e" stroke="#353f5e"></path><path d="M1621 780L1808 630L1706 565Z" fill="#3c4a70" stroke="#3c4a70"></path><path d="M1444 1012L1544 1080L1547 944Z" fill="#353f5e" stroke="#353f5e"></path><path d="M1547 944L1644 999L1635 845Z" fill="#5b76bc" stroke="#5b76bc"></path><path d="M1235 1080L1431 1080L1298 1008Z" fill="#445482" stroke="#445482"></path><path d="M453 0L394 0L469 59Z" fill="#5b76bc" stroke="#5b76bc"></path><path d="M289 862L428 1011L386 829Z" fill="#0c0c0c" stroke="#0c0c0c"></path><path d="M386 829L428 1011L508 956Z" fill="#0c0c0c" stroke="#0c0c0c"></path><path d="M508 956L451 1080L700 1080Z" fill="#16171d" stroke="#16171d"></path><path d="M1845 344L1768 287L1660 381Z" fill="#4c5f95" stroke="#4c5f95"></path><path d="M1680 212L1689 65L1586 193Z" fill="#5b76bc" stroke="#5b76bc"></path><path d="M1803 475L1660 381L1721 480Z" fill="#4c5f95" stroke="#4c5f95"></path><path d="M198 361L375 357L326 227Z" fill="#0c0c0c" stroke="#0c0c0c"></path><path d="M238 759L386 829L335 689Z" fill="#2d354d" stroke="#2d354d"></path><path d="M1852 159L1689 65L1680 212Z" fill="#2d354d" stroke="#2d354d"></path><path d="M1689 65L1648 0L1570 0Z" fill="#4c5f95" stroke="#4c5f95"></path><path d="M160 258L326 227L310 187Z" fill="#536ba8" stroke="#536ba8"></path><path d="M160 258L198 361L326 227Z" fill="#445482" stroke="#445482"></path><path d="M1808 630L1803 475L1706 565Z" fill="#16171d" stroke="#16171d"></path><path d="M1706 565L1803 475L1721 480Z" fill="#262b3c" stroke="#262b3c"></path><path d="M238 759L335 689L282 657Z" fill="#262b3c" stroke="#262b3c"></path><path d="M71 684L238 759L282 657Z" fill="#445482" stroke="#445482"></path><path d="M375 1080L451 1080L428 1011Z" fill="#536ba8" stroke="#536ba8"></path><path d="M428 1011L451 1080L508 956Z" fill="#353f5e" stroke="#353f5e"></path><path d="M1431 1080L1544 1080L1444 1012Z" fill="#2d354d" stroke="#2d354d"></path><path d="M1850 712L1808 630L1621 780Z" fill="#445482" stroke="#445482"></path><path d="M394 0L310 0L430 132Z" fill="#16171d" stroke="#16171d"></path><path d="M1850 712L1621 780L1635 845Z" fill="#353f5e" stroke="#353f5e"></path><path d="M310 0L227 131L310 187Z" fill="#1e212c" stroke="#1e212c"></path><path d="M1544 1080L1644 999L1547 944Z" fill="#0c0c0c" stroke="#0c0c0c"></path><path d="M92 348L152 451L198 361Z" fill="#262b3c" stroke="#262b3c"></path><path d="M198 361L152 451L206 537Z" fill="#536ba8" stroke="#536ba8"></path><path d="M71 684L181 860L238 759Z" fill="#353f5e" stroke="#353f5e"></path><path d="M1920 444L1845 344L1803 475Z" fill="#0c0c0c" stroke="#0c0c0c"></path><path d="M1803 475L1845 344L1660 381Z" fill="#2d354d" stroke="#2d354d"></path><path d="M1768 287L1852 159L1680 212Z" fill="#445482" stroke="#445482"></path><path d="M227 131L160 258L310 187Z" fill="#16171d" stroke="#16171d"></path><path d="M268 961L428 1011L289 862Z" fill="#2d354d" stroke="#2d354d"></path><path d="M268 961L375 1080L428 1011Z" fill="#445482" stroke="#445482"></path><path d="M181 860L268 961L289 862Z" fill="#0c0c0c" stroke="#0c0c0c"></path><path d="M181 860L289 862L238 759Z" fill="#0c0c0c" stroke="#0c0c0c"></path><path d="M1850 884L1850 712L1635 845Z" fill="#3c4a70" stroke="#3c4a70"></path><path d="M1920 587L1920 444L1803 475Z" fill="#16171d" stroke="#16171d"></path><path d="M1544 1080L1649 1080L1644 999Z" fill="#4c5f95" stroke="#4c5f95"></path><path d="M1644 999L1781 986L1635 845Z" fill="#1e212c" stroke="#1e212c"></path><path d="M310 0L169 91L227 131Z" fill="#3c4a70" stroke="#3c4a70"></path><path d="M227 131L169 91L160 258Z" fill="#0c0c0c" stroke="#0c0c0c"></path><path d="M85 586L282 657L206 537Z" fill="#16171d" stroke="#16171d"></path><path d="M1920 193L1852 159L1768 287Z" fill="#5b76bc" stroke="#5b76bc"></path><path d="M1689 65L1790 0L1648 0Z" fill="#4c5f95" stroke="#4c5f95"></path><path d="M1920 311L1768 287L1845 344Z" fill="#16171d" stroke="#16171d"></path><path d="M160 258L92 348L198 361Z" fill="#3c4a70" stroke="#3c4a70"></path><path d="M152 451L85 586L206 537Z" fill="#536ba8" stroke="#536ba8"></path><path d="M0 269L92 348L160 258Z" fill="#4c5f95" stroke="#4c5f95"></path><path d="M1852 159L1790 0L1689 65Z" fill="#5b76bc" stroke="#5b76bc"></path><path d="M0 527L85 586L152 451Z" fill="#0c0c0c" stroke="#0c0c0c"></path><path d="M1920 587L1803 475L1808 630Z" fill="#262b3c" stroke="#262b3c"></path><path d="M73 1080L303 1080L268 961Z" fill="#0c0c0c" stroke="#0c0c0c"></path><path d="M268 961L303 1080L375 1080Z" fill="#445482" stroke="#445482"></path><path d="M1850 712L1920 587L1808 630Z" fill="#0c0c0c" stroke="#0c0c0c"></path><path d="M1920 730L1920 587L1850 712Z" fill="#0c0c0c" stroke="#0c0c0c"></path><path d="M1920 444L1920 311L1845 344Z" fill="#262b3c" stroke="#262b3c"></path><path d="M1852 159L1920 91L1790 0Z" fill="#536ba8" stroke="#536ba8"></path><path d="M1649 1080L1781 986L1644 999Z" fill="#262b3c" stroke="#262b3c"></path><path d="M0 658L71 684L85 586Z" fill="#353f5e" stroke="#353f5e"></path><path d="M85 586L71 684L282 657Z" fill="#4c5f95" stroke="#4c5f95"></path><path d="M181 860L87 940L268 961Z" fill="#0c0c0c" stroke="#0c0c0c"></path><path d="M1781 986L1850 884L1635 845Z" fill="#3c4a70" stroke="#3c4a70"></path><path d="M1850 884L1920 730L1850 712Z" fill="#16171d" stroke="#16171d"></path><path d="M1920 311L1920 193L1768 287Z" fill="#536ba8" stroke="#536ba8"></path><path d="M1920 193L1920 91L1852 159Z" fill="#16171d" stroke="#16171d"></path><path d="M0 269L0 414L92 348Z" fill="#353f5e" stroke="#353f5e"></path><path d="M92 348L0 414L152 451Z" fill="#5b76bc" stroke="#5b76bc"></path><path d="M0 414L0 527L152 451Z" fill="#262b3c" stroke="#262b3c"></path><path d="M1920 981L1920 889L1850 884Z" fill="#1e212c" stroke="#1e212c"></path><path d="M1850 884L1920 889L1920 730Z" fill="#445482" stroke="#445482"></path><path d="M1649 1080L1801 1080L1781 986Z" fill="#1e212c" stroke="#1e212c"></path><path d="M0 132L0 269L160 258Z" fill="#262b3c" stroke="#262b3c"></path><path d="M0 527L0 658L85 586Z" fill="#353f5e" stroke="#353f5e"></path><path d="M0 820L87 940L181 860Z" fill="#5b76bc" stroke="#5b76bc"></path><path d="M310 0L92 0L169 91Z" fill="#5b76bc" stroke="#5b76bc"></path><path d="M169 91L0 132L160 258Z" fill="#4c5f95" stroke="#4c5f95"></path><path d="M1920 981L1850 884L1781 986Z" fill="#0c0c0c" stroke="#0c0c0c"></path><path d="M0 820L181 860L71 684Z" fill="#536ba8" stroke="#536ba8"></path><path d="M1920 91L1920 0L1790 0Z" fill="#353f5e" stroke="#353f5e"></path><path d="M0 658L0 737L71 684Z" fill="#1e212c" stroke="#1e212c"></path><path d="M92 0L0 132L169 91Z" fill="#353f5e" stroke="#353f5e"></path><path d="M0 737L0 820L71 684Z" fill="#3c4a70" stroke="#3c4a70"></path><path d="M1801 1080L1920 981L1781 986Z" fill="#5b76bc" stroke="#5b76bc"></path><path d="M92 0L0 0L0 132Z" fill="#1e212c" stroke="#1e212c"></path><path d="M0 954L73 1080L87 940Z" fill="#1e212c" stroke="#1e212c"></path><path d="M87 940L73 1080L268 961Z" fill="#0c0c0c" stroke="#0c0c0c"></path><path d="M1801 1080L1920 1080L1920 981Z" fill="#536ba8" stroke="#536ba8"></path><path d="M0 820L0 954L87 940Z" fill="#3c4a70" stroke="#3c4a70"></path><path d="M0 954L0 1080L73 1080Z" fill="#16171d" stroke="#16171d"></path></g></svg>